<svg xmlns="http://www.w3.org/2000/svg" xmlns:xlink="http://www.w3.org/1999/xlink"><defs><symbol viewBox="0 0 18 18" id="arrow"><path d="M4.5 6.75l4.5 4.5 4.5-4.5" stroke-width="1.5" stroke-linecap="round" stroke-linejoin="round" /></symbol><symbol viewBox="0 0 34 34" id="facebook"><path d="M18.98 29.746V18.135h3.916l.582-4.546H18.98v-2.896c0-1.312.366-2.21 2.248-2.21h2.386V4.43a31.641 31.641 0 00-3.495-.18c-3.462 0-5.84 2.114-5.84 5.994v3.336h-3.891v4.546h3.9v11.62h4.692z" fill-opacity=".78" /></symbol><symbol viewBox="0 0 30 30" id="folder-add"><path d="M17.5 16.25h-1.25V15a1.25 1.25 0 00-2.5 0v1.25H12.5a1.25 1.25 0 000 2.5h1.25V20a1.25 1.25 0 002.5 0v-1.25h1.25a1.25 1.25 0 000-2.5z" /><path d="M24.375 8.812h-8.75l-3.287-3.975a1.25 1.25 0 00-.963-.462h-5.75A3.087 3.087 0 002.5 7.412v15.175a3.088 3.088 0 003.125 3.038h18.75a3.088 3.088 0 003.125-3.038V11.85a3.088 3.088 0 00-3.125-3.038zM25 22.562a.574.574 0 01-.625.538H5.625A.575.575 0 015 22.562V7.412a.575.575 0 01.625-.537h5.162l3.25 3.975a1.25 1.25 0 00.963.463h9.375a.576.576 0 01.625.537v10.713z" /></symbol><symbol viewBox="0 0 36 36" id="instagram"><path d="M17.998 11.065a6.936 6.936 0 100 13.873 6.936 6.936 0 000-13.873zm0 11.44a4.506 4.506 0 110-9.01 4.506 4.506 0 010 9.01zM25.209 12.428a1.617 1.617 0 100-3.234 1.617 1.617 0 000 3.233z" fill-opacity=".78" /><path d="M30.8 9.166a6.908 6.908 0 00-3.95-3.948 9.909 9.909 0 00-3.279-.63c-1.445-.063-1.902-.08-5.565-.08-3.663 0-4.133 0-5.565.08a9.83 9.83 0 00-3.276.63 6.9 6.9 0 00-3.95 3.948 9.878 9.878 0 00-.628 3.28c-.065 1.442-.084 1.9-.084 5.564 0 3.663 0 4.13.084 5.565a9.893 9.893 0 00.628 3.28 6.915 6.915 0 003.951 3.949 9.875 9.875 0 003.278.675c1.444.063 1.902.082 5.565.082 3.663 0 4.133 0 5.565-.082a9.92 9.92 0 003.279-.628 6.921 6.921 0 003.95-3.95 9.877 9.877 0 00.628-3.279c.064-1.443.084-1.9.084-5.565 0-3.665 0-4.13-.084-5.565a9.872 9.872 0 00-.632-3.326zm-1.828 14.298a7.566 7.566 0 01-.466 2.532 4.48 4.48 0 01-2.568 2.567 7.476 7.476 0 01-2.505.466c-1.425.066-1.827.083-5.481.083-3.657 0-4.03 0-5.483-.083a7.437 7.437 0 01-2.503-.466 4.477 4.477 0 01-2.579-2.567 7.62 7.62 0 01-.466-2.503c-.065-1.425-.08-1.827-.08-5.481 0-3.656 0-4.03.08-5.483.01-.864.167-1.72.466-2.53a4.48 4.48 0 012.579-2.568 7.515 7.515 0 012.504-.467c1.426-.064 1.826-.082 5.482-.082 3.655 0 4.03 0 5.481.082a7.44 7.44 0 012.505.467 4.486 4.486 0 012.568 2.568c.295.802.453 1.649.466 2.503.065 1.427.081 1.827.081 5.483 0 3.654 0 4.047-.064 5.481h-.017v-.002z" fill-opacity=".78" /></symbol><symbol viewBox="0 0 28 28" id="like-fill"><path d="M19.833 5.25c-2.45 0-4.608 1.225-5.833 3.15-1.225-1.925-3.383-3.15-5.833-3.15-3.85 0-7 3.15-7 7 0 6.942 12.833 14 12.833 14s12.833-7 12.833-14c0-3.85-3.15-7-7-7z" /></symbol><symbol viewBox="0 0 25 24" id="search"><path d="M11 19a8 8 0 100-16 8 8 0 000 16zM21 21l-4.35-4.35" stroke-opacity=".38" stroke-width="2" stroke-linecap="round" stroke-linejoin="round" /></symbol><symbol viewBox="0 0 36 36" id="twitter"><path d="M29.45 11.996c.019.262.019.523.019.784 0 7.988-6.08 17.192-17.19 17.192-3.423 0-6.603-.992-9.279-2.714.486.056.954.075 1.46.075 2.719.007 5.361-.903 7.501-2.581a6.054 6.054 0 01-5.65-4.19c.373.056.748.093 1.141.093.542 0 1.086-.075 1.591-.205A6.04 6.04 0 014.2 14.52v-.075c.805.449 1.74.73 2.73.767a6.034 6.034 0 01-2.695-5.031c0-1.122.299-2.151.822-3.048a17.186 17.186 0 0012.46 6.322 6.866 6.866 0 01-.15-1.384 6.039 6.039 0 016.041-6.042c1.74 0 3.311.729 4.415 1.908a11.935 11.935 0 003.834-1.46A6.03 6.03 0 0129 9.807a12.11 12.11 0 003.478-.936 12.968 12.968 0 01-3.029 3.125z" fill-opacity=".78" /></symbol></defs></svg>